<svg height="90" viewBox="0 0 204 90" width="204" xmlns="http://www.w3.org/2000/svg"><g fill="none" fill-rule="evenodd"><g transform="translate(1 1)"><path d="m0 0h192 10v88h-202z" fill="#fff" fill-rule="evenodd"/><path d="m0-.5h-.5v.5 88 .5h.5 202 .5v-.5-88-.5h-.5-10z" stroke="#979797"/></g><g stroke="#cecece"><path d="m20.5 19.5h164v51h-164z"/><path d="m69.5 19.5h28v39h-28z"/><path d="m109.5 19.5h29v51h-29z"/><path d="m150.5 25.5h34v34h-34z"/><path d="m66.5 19.5h9v51h-9z"/><path d="m33.5 19.5h22v51h-22z"/><path d="m20.5 19.5h20v51h-20z"/></g><g stroke="#575757" transform="translate(21 20)"><path d="m146.5 39c-9.112698 0-16.5-7.3873016-16.5-16.5s7.387302-16.5 16.5-16.5 16.5 7.3873016 16.5 16.5-7.387302 16.5-16.5 16.5zm0-5c6.351275 0 11.5-5.1487254 11.5-11.5s-5.148725-11.5-11.5-11.5-11.5 5.1487254-11.5 11.5 5.148725 11.5 11.5 11.5z" fill="#d8d8d8"/><path d="m12.097068 0h8l-15.00000002 50.009999h-5.09706798l15-49.01831584z"/><path d="m46 0h8v50.009999l-5.097068-1v-48.01831584z"/><path d="m12 0h8l15 50.009999h-5.097068l-15-49.01831584z"/><path d="m6 39h24l-2-5h-21z"/><path d="m5 39h25l-2-5h-21z" fill="#d8d8d8"/><path d="m130 50h33v-5h-33z"/><path d="m57.8353585 33.9009805h-7.0003269v5.0990195h6.5c10.7695527 0 19.5-8.7304474 19.5-19.5 0-10.76955262-8.7304473-19.5-19.5-19.5h-6.5v5h6s14.0172363.11625577 14.5086182 14.5086181c.4913818 14.3923624-13.5082913 14.3923624-13.5082913 14.3923624z" fill="#d8d8d8"/><path d="m88 0h8v45h22v5.009999h-27.097068v-49.01831584z"/></g><g transform="translate(18 17)"><g><path d="m0 50h6v6h-6z" fill="#fff" fill-rule="evenodd"/><path d="m-.5 49.5h7v7h-7z" stroke="#cecece"/></g><g><path d="m0 0h6v6h-6z" fill="#fff" fill-rule="evenodd"/><path d="m-.5-.5h7v7h-7z" stroke="#cecece"/></g><g><path d="m0 25h6v6h-6z" fill="#fff" fill-rule="evenodd"/><path d="m-.5 24.5h7v7h-7z" stroke="#cecece"/></g><g><path d="m81 50h6v6h-6z" fill="#fff" fill-rule="evenodd"/><path d="m80.5 49.5h7v7h-7z" stroke="#cecece"/></g><g><path d="m81 0h6v6h-6z" fill="#fff" fill-rule="evenodd"/><path d="m80.5-.5h7v7h-7z" stroke="#cecece"/></g><g><path d="m163 50h6v6h-6z" fill="#fff" fill-rule="evenodd"/><path d="m162.5 49.5h7v7h-7z" stroke="#cecece"/></g></g><g transform="translate(181 17)"><path d="m0 0h6v6h-6z" fill="#fff" fill-rule="evenodd"/><path d="m-.5-.5h7v7h-7z" stroke="#cecece"/></g><g transform="translate(18 17)"><path d="m163 25h6v6h-6z" fill="#fff" fill-rule="evenodd"/><path d="m162.5 24.5h7v7h-7z" stroke="#cecece"/></g></g></svg>