<svg height="84" viewBox="0 0 424 84" width="424" xmlns="http://www.w3.org/2000/svg">
	<title>APLO - Delivering Successful Projects</title>
	<g fill="none" fill-rule="evenodd">
		<path d="m0 0h424v84h-424z" fill="#494949"/>
		<path d="m49 4h325v76h-325z" fill="#fff"/>
		<path d="m175.539843 68h-13.148437v-51.46875h14.660156c5.695341 0 9.738269.2812472 12.128906.84375 2.343762.609378 4.300774 1.5703059 5.871094 2.8828125 1.875009 1.5703204 3.316401 3.5156134 4.324219 5.8359375 1.007817 2.3671993 1.511718 5.0038917 1.511718 7.9101562 0 3.0937655-.503901 5.7890511-1.511718 8.0859376-.89063 2.3203241-2.332022 4.2421798-4.324219 5.765625-1.429695 1.1250056-3.152334 1.9335912-5.167969 2.4257812-1.804696.49219-4.94529.7382812-9.421875.7382812h-4.921875zm0-28.3007812h2.671875c3.328142 0 5.683587-.480464 7.066406-1.4414063 1.335945-.8906295 2.003907-2.4492076 2.003907-4.6757813 0-2.1328231-.650384-3.6621047-1.951172-4.5878906s-3.626936-1.3886718-6.978516-1.3886718h-2.8125zm52.484375 28.3007812v-51.46875h14.027344v39.4453125h17.4375v12.0234375zm111.160156-25.6289062c0 3.7265811-.667962 7.207015-2.003906 10.4414062-1.335944 3.1640783-3.328112 6.046862-5.976562 8.6484375-2.625013 2.5312627-5.624983 4.4765557-9 5.8359375-3.53908 1.3828194-7.042952 2.0742188-10.511719 2.0742188-3.515643 0-7.019514-.6913994-10.511719-2.0742188-3.445329-1.3828194-6.421862-3.3281125-8.929687-5.8359375-2.531263-2.4140746-4.52343-5.3202955-5.976563-8.71875-1.406257-3.3281416-2.109375-6.7851383-2.109375-10.3710937 0-3.5859555.703118-7.0429522 2.109375-10.3710938 1.453133-3.3984545 3.4453-6.3046754 5.976563-8.71875 2.578138-2.5781379 5.55467-4.5468682 8.929687-5.90625 3.281267-1.3359442 6.785138-2.0039062 10.511719-2.0039062s7.25389.6738213 10.582031 2.0214843c3.328142 1.347663 6.298815 3.310534 8.91211 5.8886719 2.613294 2.5781379 4.611321 5.4843588 5.99414 8.71875 1.335944 3.2343912 2.003906 6.6913879 2.003906 10.3710938zm-27.492187 15.1171874c-3.93752 0-7.183581-1.4179545-9.738281-4.2539062-2.484388-2.7656388-3.726563-6.3866964-3.726563-10.8632812 0-4.3125216 1.265613-7.9101419 3.796875-10.7929688 2.531263-2.8828269 5.753887-4.3242188 9.667969-4.3242188 3.820332 0 7.031237 1.4413919 9.632812 4.3242188 2.554701 2.9062645 3.832032 6.5038848 3.832032 10.7929688 0 2.203136-.304685 4.1953035-.914063 5.9765624-.609378 1.781259-1.558587 3.3867117-2.847656 4.8164063-2.601576 2.8828269-5.835918 4.3242187-9.703125 4.3242187zm-227.34375 10.5117188 17.753906-51.4700012h11.897657l-15.6945318 51.4700012zm35.332031-51.4700012 17.789063 51.4700012h-13.957032l-2.601562-9.2111614-7.714228-22.013862z" fill="#4a4a4a"/>
		<path d="m114.102343 15.53125h5.578125l-15.210937 52.46875h19.042968-25.2070308z" fill="#fff"/>
		<path d="m0 0h424v84h-424z" fill="#494949"/>
		<path d="m49 4h325v76h-325z" fill="#fff"/>
		<path d="m175.539843 68h-13.148437v-51.46875h14.660156c5.695341 0 9.738269.2812472 12.128906.84375 2.343762.609378 4.300774 1.5703059 5.871094 2.8828125 1.875009 1.5703204 3.316401 3.5156134 4.324219 5.8359375 1.007817 2.3671993 1.511718 5.0038917 1.511718 7.9101562 0 3.0937655-.503901 5.7890511-1.511718 8.0859376-.89063 2.3203241-2.332022 4.2421798-4.324219 5.765625-1.429695 1.1250056-3.152334 1.9335912-5.167969 2.4257812-1.804696.49219-4.94529.7382812-9.421875.7382812h-4.921875zm0-28.3007812h2.671875c3.328142 0 5.683587-.480464 7.066406-1.4414063 1.335945-.8906295 2.003907-2.4492076 2.003907-4.6757813 0-2.1328231-.650384-3.6621047-1.951172-4.5878906s-3.626936-1.3886718-6.978516-1.3886718h-2.8125zm52.484375 28.3007812v-51.46875h14.027344v39.4453125h17.4375v12.0234375zm111.160156-25.6289062c0 3.7265811-.667962 7.207015-2.003906 10.4414062-1.335944 3.1640783-3.328112 6.046862-5.976562 8.6484375-2.625013 2.5312627-5.624983 4.4765557-9 5.8359375-3.53908 1.3828194-7.042952 2.0742188-10.511719 2.0742188-3.515643 0-7.019514-.6913994-10.511719-2.0742188-3.445329-1.3828194-6.421862-3.3281125-8.929687-5.8359375-2.531263-2.4140746-4.52343-5.3202955-5.976563-8.71875-1.406257-3.3281416-2.109375-6.7851383-2.109375-10.3710937 0-3.5859555.703118-7.0429522 2.109375-10.3710938 1.453133-3.3984545 3.4453-6.3046754 5.976563-8.71875 2.578138-2.5781379 5.55467-4.5468682 8.929687-5.90625 3.281267-1.3359442 6.785138-2.0039062 10.511719-2.0039062s7.25389.6738213 10.582031 2.0214843c3.328142 1.347663 6.298815 3.310534 8.91211 5.8886719 2.613294 2.5781379 4.611321 5.4843588 5.99414 8.71875 1.335944 3.2343912 2.003906 6.6913879 2.003906 10.3710938zm-27.492187 15.1171874c-3.93752 0-7.183581-1.4179545-9.738281-4.2539062-2.484388-2.7656388-3.726563-6.3866964-3.726563-10.8632812 0-4.3125216 1.265613-7.9101419 3.796875-10.7929688 2.531263-2.8828269 5.753887-4.3242188 9.667969-4.3242188 3.820332 0 7.031237 1.4413919 9.632812 4.3242188 2.554701 2.9062645 3.832032 6.5038848 3.832032 10.7929688 0 2.203136-.304685 4.1953035-.914063 5.9765624-.609378 1.781259-1.558587 3.3867117-2.847656 4.8164063-2.601576 2.8828269-5.835918 4.3242187-9.703125 4.3242187zm-227.34375 10.5117188 17.753906-51.4700012h11.897657l-15.6945318 51.4700012zm35.332031-51.4700012 17.789063 51.4700012h-13.957032l-2.601562-9.2111614-7.714228-22.013862z" fill="#4a4a4a"/>
		<path d="m114.102343 15.53125h5.578125l-15.210937 52.46875h19.042968-25.2070308z" fill="#fff"/>
	</g>
</svg>